<svg viewBox="0 0 24 24" xmlns="http://www.w3.org/2000/svg">
<path fill="#FFFFFF" d="M12 0C5.373 0 0 5.373 0 12s5.373 12 12 12 12-5.373 12-12S18.627 0 12 0zm3.091 17.17c-.766.87-1.88 1.46-3.153 1.46-2.485 0-4.386-2.168-4.386-5.222 0-3.404 2.311-6.588 5.762-6.588 1.273 0 2.25.546 2.776 1.371.306.476.421.962.421 1.393 0 .838-.546 1.384-1.163 1.384-.569 0-.92-.388-.92-.84 0-.252.069-.503.069-.778 0-.599-.468-1.014-1.183-1.014-2.061 0-3.543 2.441-3.543 4.891 0 1.97 1.045 3.633 2.993 3.633.896 0 1.715-.435 2.387-1.16l.94.47z"/>
</svg>
